<svg width="91" height="16" viewBox="0 0 91 16" fill="none" xmlns="http://www.w3.org/2000/svg">
<path d="M3.66 3.7V6.54H8.24V9.18H3.66V12.26H8.84V15H0.24V0.96H8.84V3.7H3.66ZM16.3203 0.96C17.8003 0.96 19.0936 1.25333 20.2003 1.84C21.307 2.42667 22.1603 3.25333 22.7603 4.32C23.3736 5.37333 23.6803 6.59333 23.6803 7.98C23.6803 9.35333 23.3736 10.5733 22.7603 11.64C22.1603 12.7067 21.3003 13.5333 20.1803 14.12C19.0736 14.7067 17.787 15 16.3203 15H11.0603V0.96H16.3203ZM16.1003 12.04C17.3936 12.04 18.4003 11.6867 19.1203 10.98C19.8403 10.2733 20.2003 9.27333 20.2003 7.98C20.2003 6.68667 19.8403 5.68 19.1203 4.96C18.4003 4.24 17.3936 3.88 16.1003 3.88H14.4803V12.04H16.1003ZM29.0116 3.7V6.54H33.5916V9.18H29.0116V12.26H34.1916V15H25.5916V0.96H34.1916V3.7H29.0116ZM43.5719 15L40.6519 9.7H39.8319V15H36.4119V0.96H42.1519C43.2585 0.96 44.1985 1.15333 44.9719 1.54C45.7585 1.92667 46.3452 2.46 46.7319 3.14C47.1185 3.80667 47.3119 4.55333 47.3119 5.38C47.3119 6.31333 47.0452 7.14667 46.5119 7.88C45.9919 8.61333 45.2185 9.13333 44.1919 9.44L47.4319 15H43.5719ZM39.8319 7.28H41.9519C42.5785 7.28 43.0452 7.12667 43.3519 6.82C43.6719 6.51333 43.8319 6.08 43.8319 5.52C43.8319 4.98667 43.6719 4.56667 43.3519 4.26C43.0452 3.95333 42.5785 3.8 41.9519 3.8H39.8319V7.28ZM54.5388 15.14C53.5121 15.14 52.5921 14.9733 51.7788 14.64C50.9654 14.3067 50.3121 13.8133 49.8188 13.16C49.3388 12.5067 49.0854 11.72 49.0588 10.8H52.6988C52.7521 11.32 52.9321 11.72 53.2388 12C53.5454 12.2667 53.9454 12.4 54.4388 12.4C54.9454 12.4 55.3454 12.2867 55.6388 12.06C55.9321 11.82 56.0788 11.4933 56.0788 11.08C56.0788 10.7333 55.9588 10.4467 55.7188 10.22C55.4921 9.99333 55.2054 9.80667 54.8588 9.66C54.5254 9.51333 54.0454 9.34667 53.4188 9.16C52.5121 8.88 51.7721 8.6 51.1988 8.32C50.6254 8.04 50.1321 7.62667 49.7188 7.08C49.3054 6.53333 49.0988 5.82 49.0988 4.94C49.0988 3.63333 49.5721 2.61333 50.5188 1.88C51.4654 1.13333 52.6988 0.76 54.2188 0.76C55.7654 0.76 57.0121 1.13333 57.9588 1.88C58.9054 2.61333 59.4121 3.64 59.4788 4.96H55.7788C55.7521 4.50667 55.5854 4.15333 55.2788 3.9C54.9721 3.63333 54.5788 3.5 54.0987 3.5C53.6854 3.5 53.3521 3.61333 53.0988 3.84C52.8454 4.05333 52.7188 4.36667 52.7188 4.78C52.7188 5.23333 52.9321 5.58667 53.3587 5.84C53.7854 6.09333 54.4521 6.36667 55.3588 6.66C56.2654 6.96667 56.9988 7.26 57.5588 7.54C58.1321 7.82 58.6254 8.22667 59.0388 8.76C59.4521 9.29333 59.6588 9.98 59.6588 10.82C59.6588 11.62 59.4521 12.3467 59.0388 13C58.6388 13.6533 58.0521 14.1733 57.2788 14.56C56.5054 14.9467 55.5921 15.14 54.5388 15.14ZM68.4034 15.14C67.0834 15.14 65.8701 14.8333 64.7634 14.22C63.6701 13.6067 62.7968 12.7533 62.1434 11.66C61.5034 10.5533 61.1834 9.31333 61.1834 7.94C61.1834 6.56667 61.5034 5.33333 62.1434 4.24C62.7968 3.14667 63.6701 2.29333 64.7634 1.68C65.8701 1.06667 67.0834 0.76 68.4034 0.76C69.7234 0.76 70.9301 1.06667 72.0234 1.68C73.1301 2.29333 73.9968 3.14667 74.6234 4.24C75.2634 5.33333 75.5834 6.56667 75.5834 7.94C75.5834 9.31333 75.2634 10.5533 74.6234 11.66C73.9834 12.7533 73.1168 13.6067 72.0234 14.22C70.9301 14.8333 69.7234 15.14 68.4034 15.14ZM68.4034 12.02C69.5234 12.02 70.4168 11.6467 71.0834 10.9C71.7634 10.1533 72.1034 9.16667 72.1034 7.94C72.1034 6.7 71.7634 5.71333 71.0834 4.98C70.4168 4.23333 69.5234 3.86 68.4034 3.86C67.2701 3.86 66.3634 4.22667 65.6834 4.96C65.0168 5.69333 64.6834 6.68667 64.6834 7.94C64.6834 9.18 65.0168 10.1733 65.6834 10.92C66.3634 11.6533 67.2701 12.02 68.4034 12.02ZM90.0461 15H86.6261L80.9061 6.34V15H77.4861V0.96H80.9061L86.6261 9.66V0.96H90.0461V15Z" fill="#464646"/>
</svg>
