<svg width="125" height="125" viewBox="0 0 125 125" fill="none" xmlns="http://www.w3.org/2000/svg">
<circle cx="4" cy="4" r="4" fill="#DADADA"/>
<circle cx="17" cy="4" r="4" fill="#DADADA"/>
<circle cx="30" cy="4" r="4" fill="#DADADA"/>
<circle cx="43" cy="4" r="4" fill="#DADADA"/>
<circle cx="56" cy="4" r="4" fill="#DADADA"/>
<circle cx="69" cy="4" r="4" fill="#DADADA"/>
<circle cx="82" cy="4" r="4" fill="#DADADA"/>
<circle cx="95" cy="4" r="4" fill="#DADADA"/>
<circle cx="108" cy="4" r="4" fill="#DADADA"/>
<circle cx="121" cy="4" r="4" fill="#DADADA"/>
<circle cx="4" cy="17" r="4" fill="#DADADA"/>
<circle cx="17" cy="17" r="4" fill="#DADADA"/>
<circle cx="30" cy="17" r="4" fill="#DADADA"/>
<circle cx="43" cy="17" r="4" fill="#DADADA"/>
<circle cx="56" cy="17" r="4" fill="#DADADA"/>
<circle cx="69" cy="17" r="4" fill="#DADADA"/>
<circle cx="82" cy="17" r="4" fill="#DADADA"/>
<circle cx="95" cy="17" r="4" fill="#DADADA"/>
<circle cx="108" cy="17" r="4" fill="#DADADA"/>
<circle cx="121" cy="17" r="4" fill="#DADADA"/>
<circle cx="4" cy="30" r="4" fill="#DADADA"/>
<circle cx="17" cy="30" r="4" fill="#DADADA"/>
<circle cx="30" cy="30" r="4" fill="#DADADA"/>
<circle cx="43" cy="30" r="4" fill="#DADADA"/>
<circle cx="56" cy="30" r="4" fill="#DADADA"/>
<circle cx="69" cy="30" r="4" fill="#DADADA"/>
<circle cx="82" cy="30" r="4" fill="#DADADA"/>
<circle cx="95" cy="30" r="4" fill="#DADADA"/>
<circle cx="108" cy="30" r="4" fill="#DADADA"/>
<circle cx="121" cy="30" r="4" fill="#DADADA"/>
<circle cx="4" cy="43" r="4" fill="#DADADA"/>
<circle cx="17" cy="43" r="4" fill="#DADADA"/>
<circle cx="30" cy="43" r="4" fill="#DADADA"/>
<circle cx="43" cy="43" r="4" fill="#DADADA"/>
<circle cx="56" cy="43" r="4" fill="#DADADA"/>
<circle cx="69" cy="43" r="4" fill="#DADADA"/>
<circle cx="82" cy="43" r="4" fill="#DADADA"/>
<circle cx="95" cy="43" r="4" fill="#DADADA"/>
<circle cx="108" cy="43" r="4" fill="#DADADA"/>
<circle cx="121" cy="43" r="4" fill="#DADADA"/>
<circle cx="4" cy="56" r="4" fill="#DADADA"/>
<circle cx="17" cy="56" r="4" fill="#DADADA"/>
<circle cx="30" cy="56" r="4" fill="#DADADA"/>
<circle cx="43" cy="56" r="4" fill="#DADADA"/>
<circle cx="56" cy="56" r="4" fill="#DADADA"/>
<circle cx="69" cy="56" r="4" fill="#DADADA"/>
<circle cx="82" cy="56" r="4" fill="#DADADA"/>
<circle cx="95" cy="56" r="4" fill="#DADADA"/>
<circle cx="108" cy="56" r="4" fill="#DADADA"/>
<circle cx="121" cy="56" r="4" fill="#DADADA"/>
<circle cx="4" cy="69" r="4" fill="#DADADA"/>
<circle cx="17" cy="69" r="4" fill="#DADADA"/>
<circle cx="30" cy="69" r="4" fill="#DADADA"/>
<circle cx="43" cy="69" r="4" fill="#DADADA"/>
<circle cx="56" cy="69" r="4" fill="#DADADA"/>
<circle cx="69" cy="69" r="4" fill="#DADADA"/>
<circle cx="82" cy="69" r="4" fill="#DADADA"/>
<circle cx="95" cy="69" r="4" fill="#DADADA"/>
<circle cx="108" cy="69" r="4" fill="#DADADA"/>
<circle cx="121" cy="69" r="4" fill="#DADADA"/>
<circle cx="4" cy="82" r="4" fill="#DADADA"/>
<circle cx="17" cy="82" r="4" fill="#DADADA"/>
<circle cx="30" cy="82" r="4" fill="#DADADA"/>
<circle cx="43" cy="82" r="4" fill="#DADADA"/>
<circle cx="56" cy="82" r="4" fill="#DADADA"/>
<circle cx="69" cy="82" r="4" fill="#DADADA"/>
<circle cx="82" cy="82" r="4" fill="#DADADA"/>
<circle cx="95" cy="82" r="4" fill="#DADADA"/>
<circle cx="108" cy="82" r="4" fill="#DADADA"/>
<circle cx="121" cy="82" r="4" fill="#DADADA"/>
<circle cx="4" cy="95" r="4" fill="#DADADA"/>
<circle cx="17" cy="95" r="4" fill="#DADADA"/>
<circle cx="30" cy="95" r="4" fill="#DADADA"/>
<circle cx="43" cy="95" r="4" fill="#DADADA"/>
<circle cx="56" cy="95" r="4" fill="#DADADA"/>
<circle cx="69" cy="95" r="4" fill="#DADADA"/>
<circle cx="82" cy="95" r="4" fill="#DADADA"/>
<circle cx="95" cy="95" r="4" fill="#DADADA"/>
<circle cx="108" cy="95" r="4" fill="#DADADA"/>
<circle cx="121" cy="95" r="4" fill="#DADADA"/>
<circle cx="4" cy="108" r="4" fill="#DADADA"/>
<circle cx="17" cy="108" r="4" fill="#DADADA"/>
<circle cx="30" cy="108" r="4" fill="#DADADA"/>
<circle cx="43" cy="108" r="4" fill="#DADADA"/>
<circle cx="56" cy="108" r="4" fill="#DADADA"/>
<circle cx="69" cy="108" r="4" fill="#DADADA"/>
<circle cx="82" cy="108" r="4" fill="#DADADA"/>
<circle cx="95" cy="108" r="4" fill="#DADADA"/>
<circle cx="108" cy="108" r="4" fill="#DADADA"/>
<circle cx="121" cy="108" r="4" fill="#DADADA"/>
<circle cx="4" cy="121" r="4" fill="#DADADA"/>
<circle cx="17" cy="121" r="4" fill="#DADADA"/>
<circle cx="30" cy="121" r="4" fill="#DADADA"/>
<circle cx="43" cy="121" r="4" fill="#DADADA"/>
<circle cx="56" cy="121" r="4" fill="#DADADA"/>
<circle cx="69" cy="121" r="4" fill="#DADADA"/>
<circle cx="82" cy="121" r="4" fill="#DADADA"/>
<circle cx="95" cy="121" r="4" fill="#DADADA"/>
<circle cx="108" cy="121" r="4" fill="#DADADA"/>
<circle cx="121" cy="121" r="4" fill="#DADADA"/>
</svg>
